<svg xmlns="http://www.w3.org/2000/svg" width="18.04" height="20.83" viewBox="0 0 18.04 20.83">
  <path id="Path_262" data-name="Path 262" d="M9.816.266A7.655,7.655,0,0,0,2.184,7.9v2.779A10.672,10.672,0,0,1,1.009,15.3a2.1,2.1,0,0,0,1.866,3.014h3.54a3.472,3.472,0,0,0,6.806,0h3.54A2.1,2.1,0,0,0,18.622,15.3a10.7,10.7,0,0,1-1.168-4.618V7.9A7.66,7.66,0,0,0,9.816.266Zm0,1.383A6.265,6.265,0,0,1,16.069,7.9v2.779a11.976,11.976,0,0,0,1.313,5.243.676.676,0,0,1-.621,1.005H2.875a.676.676,0,0,1-.625-1.005,11.964,11.964,0,0,0,1.317-5.243V7.9A6.26,6.26,0,0,1,9.816,1.649Zm0,1.389A4.868,4.868,0,0,0,4.956,7.9a.695.695,0,0,0,1.389,0A3.451,3.451,0,0,1,9.816,4.428a.7.7,0,1,0,0-1.39ZM5.652,9.985a.694.694,0,1,0,.694.694A.694.694,0,0,0,5.652,9.985ZM7.86,18.314h3.917a2.073,2.073,0,0,1-3.917,0Z" transform="translate(-0.796 -0.266)" fill="#fcf9ff" fill-rule="evenodd"/>
</svg>
