<svg xmlns="http://www.w3.org/2000/svg" width="14.625" height="18" viewBox="0 0 14.625 18">
  <g id="del" transform="translate(-6)">
    <path id="Path_274" data-name="Path 274" d="M24.182,33.455a.545.545,0,1,0,1.091,0V28.545a.545.545,0,0,0-1.091,0Zm-1.636-4.909a.546.546,0,0,0-.545.545v3.273a.545.545,0,0,0,1.091,0V29.091A.546.546,0,0,0,22.545,28.545Zm4.364,4.364a.546.546,0,0,0,.545-.545V29.091a.545.545,0,1,0-1.091,0v3.273A.546.546,0,0,0,26.909,32.909Z" transform="translate(-11.233 -19.167)" fill="#d2d5d8"/>
    <path id="Path_275" data-name="Path 275" d="M20.063,1.688H17.655l-.434-1.3A.562.562,0,0,0,16.688,0H9.938A.562.562,0,0,0,9.4.385l-.434,1.3H6.562A.563.563,0,0,0,6,2.25V4.5a.563.563,0,0,0,.563.563h.563v11.25A1.689,1.689,0,0,0,8.813,18h9A1.689,1.689,0,0,0,19.5,16.313V5.063h.563a.563.563,0,0,0,.563-.562V2.25A.563.563,0,0,0,20.063,1.688ZM19.5,3.938H13.312a.563.563,0,0,0,0,1.125h5.063v11.25a.563.563,0,0,1-.562.562h-9a.563.563,0,0,1-.562-.562V4.5a.563.563,0,0,0-.563-.562H7.125V2.813h2.25a.562.562,0,0,0,.534-.385l.434-1.3h5.939l.434,1.3a.563.563,0,0,0,.534.385H19.5Z" transform="translate(0)" fill="#d2d5d8"/>
    <path id="Path_276" data-name="Path 276" d="M22.223,14.24a.755.755,0,1,0,1.065,0A.773.773,0,0,0,22.223,14.24Z" transform="translate(-11.57 -9.927)" fill="#d2d5d8"/>
  </g>
</svg>
