<svg xmlns="http://www.w3.org/2000/svg" width="28.047" height="28.047" viewBox="0 0 28.047 28.047">
  <path id="Path_285" data-name="Path 285" d="M13.749,11.2h5.1a1.275,1.275,0,1,0,0-2.55H16.3V7.374a1.275,1.275,0,0,0-2.55,0V8.649a3.825,3.825,0,1,0,0,7.649H16.3a1.275,1.275,0,1,1,0,2.55H11.2a1.275,1.275,0,0,0,0,2.55h2.55v1.275a1.275,1.275,0,1,0,2.55,0V21.4a3.825,3.825,0,1,0,0-7.649h-2.55a1.275,1.275,0,0,1,0-2.55ZM15.023,1A14.023,14.023,0,1,0,29.047,15.023,14.023,14.023,0,0,0,15.023,1Zm0,25.5A11.474,11.474,0,1,1,26.5,15.023,11.474,11.474,0,0,1,15.023,26.5Z" transform="translate(-1 -1)" fill="#dedede"/>
</svg>
