<svg xmlns="http://www.w3.org/2000/svg" width="18" height="18" viewBox="0 0 18 18" fill="#36A1FF">
  <g id="edit" transform="translate(-1 -0.5)" fill="#36A1FF">
    <path color="#36A1FF" id="Path_277" data-name="Path 277" d="M12.8,17.5H2.673A2.674,2.674,0,0,1,0,14.823V4.677A2.674,2.674,0,0,1,2.673,2H7.737a.665.665,0,0,1,.7.7.665.665,0,0,1-.7.7H2.673A1.262,1.262,0,0,0,1.407,4.677V14.752A1.262,1.262,0,0,0,2.673,16.02H12.731A1.262,1.262,0,0,0,14,14.752v-5a.7.7,0,1,1,1.407,0v5.073A2.572,2.572,0,0,1,12.8,17.5Z" transform="translate(1 1)" fill="#d2d5d8"/>
    <path color="#36A1FF" id="Path_278" data-name="Path 278" d="M5.632,12a.573.573,0,0,1-.442-.189A.882.882,0,0,1,5,11.242l.632-3.158a.347.347,0,0,1,.189-.316L13.4.189a.611.611,0,0,1,.884,0l2.526,2.526a.611.611,0,0,1,0,.884L9.232,11.179a1.381,1.381,0,0,1-.316.189L5.758,12Zm1.2-3.474-.379,2.021,2.021-.379,7.011-7.011L13.842,1.516Z" transform="translate(2 0.5)" fill="#d2d5d8"/>
  </g>
</svg>
