<svg xmlns="http://www.w3.org/2000/svg" width="22" height="22" viewBox="0 0 22 22">
  <g id="Group_458" data-name="Group 458" transform="translate(-1 -1)">
    <path id="Path_279" data-name="Path 279" d="M22.86,22.86a1.353,1.353,0,0,1,.3-.219l-1.669-1.67a.367.367,0,0,0-.518.519l1.665,1.665A1.489,1.489,0,0,1,22.86,22.86Z" transform="translate(-5.297 -5.297)" fill="#fff"/>
    <path id="Path_280" data-name="Path 280" d="M24.233,26.764a1.824,1.824,0,0,1-1.3-.537L20.37,23.66a1.834,1.834,0,0,1,0-2.593,1.935,1.935,0,0,1,2.592,0l2.567,2.567a1.833,1.833,0,0,1-1.3,3.13Zm-2.567-5.485a1.09,1.09,0,0,0-.778,1.863l2.567,2.567a1.127,1.127,0,0,0,1.555,0,1.1,1.1,0,0,0,0-1.556l-2.567-2.567A1.1,1.1,0,0,0,21.667,21.279Zm-8.8-.785a.367.367,0,0,1,0-.733,6.2,6.2,0,0,0,5.964-4.386.367.367,0,0,1,.7.215A6.926,6.926,0,0,1,12.867,20.494Z" transform="translate(-3.067 -3.764)" fill="#fff"/>
    <path id="Path_281" data-name="Path 281" d="M9.8,18.6a8.8,8.8,0,1,1,8.8-8.8A8.81,8.81,0,0,1,9.8,18.6Zm0-16.867A8.067,8.067,0,1,0,17.867,9.8,8.076,8.076,0,0,0,9.8,1.733Z" fill="#fff"/>
    <circle id="Ellipse_205" data-name="Ellipse 205" cx="0.367" cy="0.367" r="0.367" transform="translate(16.033 9.433)" fill="#fff"/>
  </g>
</svg>
