<svg xmlns="http://www.w3.org/2000/svg" width="24" height="24.042" viewBox="0 0 24 24.042">
  <g id="Group_460" data-name="Group 460" transform="translate(-7.494 -9.973)">
    <path id="Path_286" data-name="Path 286" d="M12.11,32.524a.515.515,0,0,0,0,.729l1.513,1.513.649.649c.484.484,1.245-.214.756-.7L12.84,32.525A.516.516,0,0,0,12.11,32.524Zm-4.129.7c.641,0,.587-1.017.775-1.442.167-.378,1.042-1.379.11-1.53S6.849,33.228,7.982,33.228ZM8.639,34.5c-.077-.284-.178-.569-.527-.583a.522.522,0,0,0-.524.633c.069.3.192.6.553.6a.52.52,0,0,0,.5-.651Zm8.941-1.615a2.081,2.081,0,0,0-.1-3.015,2.124,2.124,0,0,0-2.813.1,2.063,2.063,0,1,0,2.918,2.918C17.97,32.5,17.191,33.279,17.58,32.889ZM15.393,30.7c1.074-1.075,2.558.894,1.242,1.622A1.035,1.035,0,0,1,15.393,30.7Zm8.029-5.84-.13.13c-.551.551.352,1.163.859.6A.516.516,0,0,0,23.421,24.861Zm2.17-2.17-.816.816c-.492.491.274,1.185.761.7l.786-.785A.516.516,0,0,0,25.592,22.691Z" transform="translate(0 -6.085)" fill="#f9f9f9"/>
    <path id="Path_287" data-name="Path 287" d="M31.639,10.938c-.794-.794-1.813-1.329-2.9-.663a9.446,9.446,0,0,0-1.545,1.464,3.851,3.851,0,0,0-.587.662,2.073,2.073,0,0,0-.3.86c-.011.1.043.417-.018.479l-.783.783-5.5,5.5h0a4.343,4.343,0,0,0-5.087.247A7.67,7.67,0,0,0,13.6,21.946a1.282,1.282,0,0,1-.94.69,4.791,4.791,0,0,0-1.521.377.521.521,0,0,0,.043.891c.35.182.978-.119,1.346-.189a2.959,2.959,0,0,0,1.317-.459,3.552,3.552,0,0,0,.77-.995,3.98,3.98,0,0,1,1.8-1.725,3.548,3.548,0,0,1,2.837.244l-.917.917a.515.515,0,0,0,0,.729l1.421,1.421c.58.58,1.307-.5,1.684-.878a3.162,3.162,0,0,1-.3,3.684,8.257,8.257,0,0,1-1.1.9A3.031,3.031,0,0,0,18.8,28.617a8.9,8.9,0,0,0-.46,1.8,3.913,3.913,0,0,1-.927,1.68c-1.593,1.594-4.2.861-5.769-.368a6.856,6.856,0,0,1-1.281-1.32c-.242-.329-.828-1.335-1.265-.55-.286.514.529,1.309.836,1.661A7.808,7.808,0,0,0,11.51,32.9c1.987,1.311,5,1.736,6.755-.2a6.83,6.83,0,0,0,1.348-3.288c.135-.547.6-.743,1.041-1.025a7.722,7.722,0,0,0,1.189-.979,4.252,4.252,0,0,0,.352-5.2l1.343-1.343a.516.516,0,0,0-.729-.729l-2.655,2.656-.73-.73,7.3-7.3c.835,1.073,2.349,1.66,3.45.557.5-.468.974-.974,1.46-1.46A2.068,2.068,0,0,0,31.639,10.938ZM30.91,13.13l-1.46,1.46c-1,1-2.822-.826-1.823-1.824L28.9,11.5A1.284,1.284,0,0,1,29.818,11c.488,0,.777.348,1.092.662A1.035,1.035,0,0,1,30.91,13.13Z" transform="translate(-0.749)" fill="#fff"/>
    <path id="Path_288" data-name="Path 288" d="M46.984,12.6a.437.437,0,0,0-.619,0l-1.239,1.238a.441.441,0,0,0,.42.733c.186-.049.337-.252.466-.382l.971-.971A.437.437,0,0,0,46.984,12.6Zm.129.748-1.239,1.238a.441.441,0,0,0,.42.733c.186-.049.337-.252.466-.382l.971-.971A.438.438,0,0,0,47.113,13.344Z" transform="translate(-17.907 -0.953)" fill="#e3e3e3"/>
  </g>
</svg>
