<svg xmlns="http://www.w3.org/2000/svg" width="22" height="22" viewBox="0 0 22 22">
  <path id="Path_291" data-name="Path 291" d="M13,2A11,11,0,1,1,2,13,11,11,0,0,1,13,2Zm0,1.833A9.167,9.167,0,1,0,22.167,13,9.167,9.167,0,0,0,13,3.833Zm0,13.75a1.375,1.375,0,1,1-1.375,1.375A1.375,1.375,0,0,1,13,17.583Zm0-11a3.667,3.667,0,0,1,3.667,3.667,3.983,3.983,0,0,1-1.382,3.131l-.484.494a2.326,2.326,0,0,0-.884,1.875.917.917,0,1,1-1.833,0,3.983,3.983,0,0,1,1.382-3.131l.484-.494a2.326,2.326,0,0,0,.884-1.875,1.833,1.833,0,1,0-3.667,0,.917.917,0,1,1-1.833,0A3.667,3.667,0,0,1,13,6.583Z" transform="translate(-2 -2)" fill="#fff"/>
</svg>
