<svg xmlns="http://www.w3.org/2000/svg" width="22.976" height="25.559" viewBox="0 0 22.976 25.559">
  <path id="Path_241" data-name="Path 241" d="M24.7,9.665h0L17.041,2.951a3.829,3.829,0,0,0-5.106,0L4.276,9.665A3.829,3.829,0,0,0,3,12.55V23.706a3.829,3.829,0,0,0,3.829,3.829H22.146a3.829,3.829,0,0,0,3.829-3.829V12.537A3.829,3.829,0,0,0,24.7,9.665ZM17.041,24.982H11.935V18.6a1.276,1.276,0,0,1,1.276-1.276h2.553A1.276,1.276,0,0,1,17.041,18.6Zm6.382-1.276a1.276,1.276,0,0,1-1.276,1.276H19.593V18.6a3.829,3.829,0,0,0-3.829-3.829H13.211A3.829,3.829,0,0,0,9.382,18.6v6.382H6.829a1.276,1.276,0,0,1-1.276-1.276V12.537a1.276,1.276,0,0,1,.434-.957l7.659-6.7a1.276,1.276,0,0,1,1.685,0l7.659,6.7a1.276,1.276,0,0,1,.434.957Z" transform="translate(-3 -1.976)" fill="#f5f8fd"/>
</svg>
