<svg xmlns="http://www.w3.org/2000/svg" width="30" height="25" viewBox="0 0 30 25">
  <path id="Path_263" data-name="Path 263" d="M21.25,26.13h-15A3.75,3.75,0,0,1,2.5,22.38v-10a1.25,1.25,0,0,0-2.5,0v10a6.25,6.25,0,0,0,6.25,6.25h15a1.25,1.25,0,0,0,0-2.5Zm5-22.5H8.75A3.75,3.75,0,0,0,5,7.38v12.5a3.75,3.75,0,0,0,3.75,3.75h17.5A3.75,3.75,0,0,0,30,19.88V7.38a3.75,3.75,0,0,0-3.75-3.75Zm-.512,2.5-7.35,7.35a1.25,1.25,0,0,1-1.775,0L9.263,6.13ZM27.5,19.88a1.25,1.25,0,0,1-1.25,1.25H8.75A1.25,1.25,0,0,1,7.5,19.88V7.843l7.35,7.35a3.75,3.75,0,0,0,5.3,0l7.35-7.35Z" transform="translate(0 -3.63)" fill="#777"/>
</svg>
