<svg xmlns="http://www.w3.org/2000/svg" width="172.39" height="178.011" viewBox="0 0 172.39 178.011">
  <path id="Path_161" data-name="Path 161" fill="white" d="M66.674,7.559A14.31,14.31,0,0,0,53.2,21.847V137.142H28.038c-11.856,0-23.161,9.609-25.25,21.465s5.824,21.465,17.68,21.465H41.933c11.856,0,23.161-9.609,25.25-21.465a21.757,21.757,0,0,0,.272-3.563l.064-.014V57.908a7.155,7.155,0,0,1,6.6-7.133l78.7-6.053a7.155,7.155,0,0,1,7.706,7.133v63.822H135.362c-11.856,0-23.161,9.609-25.25,21.465s5.824,21.465,17.68,21.465h21.465c11.856,0,23.161-9.609,25.25-21.465a21.755,21.755,0,0,0,.272-3.563l.064-.014V16.374A14.31,14.31,0,0,0,159.7,2.085L66.674,7.559Z" transform="translate(-2.453 -2.061)"/>
</svg>
