<svg xmlns="http://www.w3.org/2000/svg" width="18.786" height="18.786" viewBox="0 0 18.786 18.786">
  <path id="Path_286" data-name="Path 286" d="M18.557,17.477l-3.229-3.157h0l-.076-.115a.76.76,0,0,0-1.068,0h0a7.62,7.62,0,0,1-9.88.32A7.213,7.213,0,0,1,2.7,4.988,7.585,7.585,0,0,1,12.167,2.2a7.272,7.272,0,0,1,4.052,8.816.732.732,0,0,0,.171.725.772.772,0,0,0,.727.218.754.754,0,0,0,.557-.507h0A8.768,8.768,0,0,0,12.978.884,9.162,9.162,0,0,0,1.587,3.837,8.694,8.694,0,0,0,2.864,15.291a9.2,9.2,0,0,0,11.774.484l2.859,2.8a.769.769,0,0,0,1.068,0,.736.736,0,0,0,0-1.052h0Z" fill="#dedede"/>
</svg>
