<svg xmlns="http://www.w3.org/2000/svg" width="22.394" height="13.995" viewBox="0 0 22.394 13.995">
  <g id="view" transform="translate(-45.08 -124.189)">
    <g id="XMLID_567_" transform="translate(45.08 124.189)">
      <path id="XMLID_105_" d="M27.172,119.995a10.334,10.334,0,0,1-4.385-1.05,16.649,16.649,0,0,1-3.48-2.249,21.28,21.28,0,0,1-3.182-3.251.742.742,0,0,1,0-.9,21.281,21.281,0,0,1,3.182-3.251,16.651,16.651,0,0,1,3.48-2.249A10.334,10.334,0,0,1,27.172,106a10.334,10.334,0,0,1,4.385,1.05,16.65,16.65,0,0,1,3.48,2.249,21.017,21.017,0,0,1,3.182,3.251.742.742,0,0,1,0,.9,21.281,21.281,0,0,1-3.182,3.251,16.649,16.649,0,0,1-3.48,2.249A10.333,10.333,0,0,1,27.172,119.995Zm-9.489-7c1.171,1.386,5.038,5.5,9.489,5.5s8.318-4.119,9.489-5.5c-1.171-1.386-5.038-5.5-9.489-5.5S18.854,111.612,17.684,113Z" transform="translate(-15.975 -106)" fill="#d2d5d8"/>
    </g>
    <g id="XMLID_568_" transform="translate(53.278 128.186)">
      <path id="XMLID_102_" d="M187,190a3,3,0,1,1,3-3A3,3,0,0,1,187,190Zm0-4.667A1.667,1.667,0,1,0,188.667,187,1.666,1.666,0,0,0,187,185.333Z" transform="translate(-184 -184)" fill="#d2d5d8"/>
    </g>
  </g>
</svg>
