<?xml version="1.0" standalone="no"?>
<!DOCTYPE svg PUBLIC "-//W3C//DTD SVG 20010904//EN"
 "http://www.w3.org/TR/2001/REC-SVG-20010904/DTD/svg10.dtd">
<svg version="1.0" xmlns="http://www.w3.org/2000/svg"
 width="260.000000pt" height="260.000000pt" viewBox="0 0 260.000000 260.000000"
 preserveAspectRatio="xMidYMid meet">
<metadata>
Created by potrace 1.11, written by Peter Selinger 2001-2013
</metadata>
<g transform="translate(0.000000,260.000000) scale(0.100000,-0.100000)"
fill="#000000" stroke="none">
<path d="M1080 2339 c-243 -62 -446 -195 -594 -388 -140 -181 -216 -411 -216
-645 0 -137 4 -166 30 -269 117 -451 523 -778 981 -791 174 -5 305 17 446 76
76 31 124 74 149 134 37 87 -1 202 -83 254 -69 44 -123 49 -213 17 -41 -14
-88 -28 -105 -31 -16 -4 -41 -9 -55 -11 -35 -7 -149 -7 -185 0 -65 12 -142 38
-190 63 -286 151 -414 492 -295 788 49 123 115 208 215 278 76 54 139 83 229
105 117 29 158 59 194 139 34 75 14 177 -44 236 -61 60 -148 75 -264 45z"/>
<path d="M2097 1535 c-97 -51 -112 -177 -28 -248 61 -51 150 -45 206 13 36 38
47 126 21 174 -36 67 -132 96 -199 61z"/>
<path d="M1996 1090 c-53 -27 -64 -38 -88 -84 -39 -76 -22 -173 39 -226 45
-40 77 -53 131 -51 106 3 179 74 186 179 9 143 -141 245 -268 182z"/>
</g>
</svg>
