<svg id="Group_1" data-name="Group 1" xmlns="http://www.w3.org/2000/svg" width="27.44" height="28" viewBox="0 0 27.44 28">
  <path id="Path_1" data-name="Path 1" d="M143.99,109.623a12,12,0,0,0-.3-2.862H130.55v5.2h7.715A6.842,6.842,0,0,1,135.4,116.5l-.026.174,4.156,3.22.288.029a13.688,13.688,0,0,0,4.169-10.3" transform="translate(-116.55 -95.312)" fill="#4285f4"/>
  <path id="Path_2" data-name="Path 2" d="M26.432,167.6A13.344,13.344,0,0,0,35.7,164.21l-4.418-3.422a8.286,8.286,0,0,1-4.853,1.4,8.428,8.428,0,0,1-7.964-5.818l-.164.014-4.321,3.344-.057.157A13.99,13.99,0,0,0,26.432,167.6" transform="translate(-12.432 -139.601)" fill="#34a853"/>
  <path id="Path_3" data-name="Path 3" d="M6.035,80.433a8.619,8.619,0,0,1-.467-2.769A9.057,9.057,0,0,1,6.02,74.9l-.008-.186-4.376-3.4-.143.068a13.97,13.97,0,0,0,0,12.569l4.542-3.515" transform="translate(0 -63.665)" fill="#fbbc05"/>
  <path id="Path_4" data-name="Path 4" d="M26.432,5.413A7.759,7.759,0,0,1,31.845,7.5L35.8,3.64A13.451,13.451,0,0,0,26.432,0,13.99,13.99,0,0,0,13.925,7.715l4.527,3.516a8.463,8.463,0,0,1,7.98-5.818" transform="translate(-12.432)" fill="#eb4335"/>
</svg>
