<svg id="Icons" xmlns="http://www.w3.org/2000/svg" width="24.408" height="22.189" viewBox="0 0 24.408 22.189">
  <g id="Color-" transform="translate(0 0)">
    <path id="LinkedIn" d="M726.408,287.189h-5.395v-7.8c0-2.041-.843-3.435-2.7-3.435a2.722,2.722,0,0,0-2.576,1.847,3.422,3.422,0,0,0-.116,1.231v8.157h-5.344s.069-13.818,0-15.073h5.344v2.366c.316-1.035,2.024-2.511,4.748-2.511,3.381,0,6.037,2.168,6.037,6.837v8.381ZM704.873,270.23h-.035A2.63,2.63,0,0,1,702,267.617a2.9,2.9,0,1,1,2.873,2.613Zm-2.258,1.885h4.757v15.073h-4.757Z" transform="translate(-702 -265)" fill="#007ebb" fill-rule="evenodd"/>
  </g>
</svg>
